<svg width="156" height="50" viewBox="0 0 156 50" fill="none" xmlns="http://www.w3.org/2000/svg">
<path d="M49.449 49.449H0V0H49.449V49.449ZM2.43232 47.0167H47.0167V2.43232H2.43232V47.0167Z" fill="#0D0F13"/>
<path d="M38.2038 32.6759L25.1179 19.59L12.032 32.6759H8.58624L25.1179 16.1523L41.6415 32.6759H38.2038Z" fill="#0D0F13"/>
<path d="M31.3444 32.6725L25.1177 26.4377L18.8829 32.6725H15.4452L25.1177 23L34.7821 32.6725H31.3444Z" fill="#0D0F13"/>
<path d="M60.3864 20.936V7.89062H69.0211V10.1446H63.1105V13.2742H68.6887V15.4146H63.1105V18.682H69.0211V20.936H60.3864Z" fill="#0D0F13"/>
<path d="M74.6967 20.936V7.89062H77.429V18.682H83.1287V20.936H74.6967Z" fill="#0D0F13"/>
<path d="M88.4473 20.936V7.89062H97.0821V10.1446H91.1715V13.2742H96.7496V15.4146H91.1715V18.682H97.0821V20.936H88.4473Z" fill="#0D0F13"/>
<path d="M106.276 20.9357L101.922 7.89844H104.938L107.922 18.1466H107.979L110.954 7.89844H113.978L109.616 20.9357H106.284H106.276Z" fill="#0D0F13"/>
<path d="M116.549 20.9357L121.097 7.89844H123.513V10.428H122.678L119.419 20.9357H116.557H116.549ZM118.997 17.7655L119.662 15.7224H125.743L126.408 17.7655H118.989H118.997ZM125.986 20.9357L122.735 10.428V7.89844H124.316L128.864 20.9357H125.994H125.986Z" fill="#0D0F13"/>
<path d="M135.253 20.936V10.1446H131.475V7.89062H141.756V10.1446H137.977V20.936H135.245H135.253Z" fill="#0D0F13"/>
<path d="M146.969 20.936V7.89062H155.604V10.1446H149.693V13.2742H155.271V15.4146H149.693V18.682H155.604V20.936H146.969Z" fill="#0D0F13"/>
<path d="M60.5405 41.3418V28.0938H64.8376C66.1591 28.0938 67.2861 28.3532 68.2185 28.8721C69.1509 29.391 69.8643 30.145 70.367 31.1341C70.8616 32.1233 71.1129 33.307 71.1129 34.7097V34.7259C71.1129 36.1204 70.8616 37.3122 70.367 38.3014C69.8725 39.2905 69.159 40.0445 68.2185 40.5634C67.278 41.0823 66.151 41.3418 64.8294 41.3418H60.5323H60.5405ZM61.789 40.2148H64.7565C65.851 40.2148 66.7753 40.004 67.5293 39.5743C68.2833 39.1527 68.859 38.5284 69.2482 37.7095C69.6454 36.8906 69.84 35.9015 69.84 34.7259V34.7097C69.84 33.534 69.6454 32.5368 69.2482 31.7179C68.8509 30.899 68.2752 30.2747 67.5293 29.8531C66.7753 29.4315 65.851 29.2207 64.7565 29.2207H61.789V40.2067V40.2148Z" fill="#0D0F13"/>
<path d="M76.8207 41.3418V28.0938H84.8149V29.2207H78.0693V33.9962H84.4744V35.115H78.0693V40.2067H84.8149V41.3337H76.8207V41.3418Z" fill="#0D0F13"/>
<path d="M94.7712 41.5521C93.8307 41.5521 93.0118 41.4062 92.2983 41.1062C91.5848 40.8062 91.0173 40.3846 90.6038 39.8333C90.1822 39.282 89.9471 38.6334 89.8903 37.8956V37.7658H91.1308L91.147 37.8956C91.2119 38.4064 91.3984 38.8442 91.7146 39.2252C92.0308 39.5982 92.4605 39.8901 92.9875 40.1009C93.5226 40.3036 94.1388 40.409 94.836 40.409C95.5333 40.409 96.1333 40.3036 96.6441 40.1009C97.1548 39.8982 97.5521 39.5982 97.8359 39.2171C98.1197 38.8361 98.2656 38.3901 98.2656 37.8793C98.2656 37.2226 98.0386 36.7037 97.5927 36.3146C97.1467 35.9254 96.4089 35.6173 95.3874 35.3822L93.9361 35.0579C92.6551 34.766 91.7146 34.3282 91.1146 33.7606C90.5146 33.185 90.2065 32.431 90.2065 31.4905C90.2065 30.777 90.4092 30.1527 90.7984 29.6176C91.1876 29.0825 91.7146 28.6528 92.3956 28.3528C93.0767 28.0447 93.8469 27.8906 94.7225 27.8906C95.5982 27.8906 96.3441 28.0447 97.0089 28.3528C97.6737 28.6609 98.2088 29.0906 98.6142 29.6338C99.0196 30.1851 99.2385 30.8175 99.2872 31.5472V31.6769H98.0467V31.5553C97.9737 31.0364 97.7872 30.5905 97.5035 30.2175C97.2197 29.8446 96.8305 29.5527 96.3522 29.35C95.8738 29.1473 95.3225 29.0419 94.6982 29.0419C94.0739 29.0419 93.4983 29.1392 93.0199 29.3419C92.5334 29.5446 92.1605 29.8203 91.8929 30.1851C91.6254 30.5419 91.4956 30.9635 91.4956 31.4418V31.458C91.4956 32.0742 91.7227 32.5688 92.1686 32.958C92.6145 33.3471 93.3199 33.6552 94.2847 33.8741L95.736 34.1984C96.6441 34.4011 97.3738 34.6606 97.9332 34.9768C98.4926 35.293 98.898 35.6822 99.1575 36.1443C99.4169 36.6064 99.5466 37.1659 99.5466 37.8145C99.5466 38.5847 99.352 39.2414 98.9629 39.8009C98.5737 40.3603 98.0224 40.79 97.3089 41.0981C96.5954 41.4062 95.7522 41.5603 94.7874 41.5603L94.7712 41.5521Z" fill="#0D0F13"/>
<path d="M105.125 41.3418V28.0938H106.373V41.3418H105.125Z" fill="#0D0F13"/>
<path d="M118 41.5524C117.1 41.5524 116.289 41.3903 115.559 41.066C114.83 40.7417 114.206 40.2795 113.687 39.6715C113.168 39.0634 112.77 38.3418 112.487 37.4905C112.211 36.6473 112.065 35.6906 112.065 34.6366C112.065 33.2501 112.308 32.0583 112.795 31.0529C113.281 30.0476 113.97 29.2692 114.854 28.7098C115.746 28.1585 116.792 27.8828 117.992 27.8828C118.957 27.8828 119.8 28.0531 120.538 28.3936C121.275 28.7341 121.884 29.2125 122.362 29.8287C122.848 30.4449 123.189 31.1664 123.392 31.9934L123.432 32.1394H122.127L122.086 32.0502C121.778 31.0691 121.275 30.3232 120.562 29.8125C119.848 29.3017 118.997 29.0422 117.992 29.0422C116.986 29.0422 116.2 29.2692 115.511 29.7152C114.814 30.1692 114.278 30.8097 113.897 31.6448C113.516 32.4799 113.33 33.4771 113.33 34.6366C113.33 35.5365 113.435 36.3311 113.654 37.0364C113.873 37.7418 114.181 38.3499 114.595 38.8526C115.008 39.3552 115.495 39.7363 116.07 40.0039C116.646 40.2714 117.286 40.4011 117.992 40.4011C118.843 40.4011 119.589 40.2228 120.23 39.8579C120.87 39.4931 121.373 38.9904 121.729 38.3418C122.086 37.6932 122.265 36.9391 122.265 36.0797V35.7878H118.138V34.6852H123.505V35.7878C123.505 36.6716 123.375 37.4743 123.132 38.1877C122.889 38.9012 122.516 39.5012 122.038 40.0039C121.559 40.5065 120.975 40.8876 120.294 41.1552C119.613 41.4227 118.843 41.5524 117.992 41.5524H118Z" fill="#0D0F13"/>
<path d="M129.286 41.3418V28.0938H130.518L139.396 40.7905L137.783 39.2419H138.358V28.0938H139.599V41.3418H138.358L129.48 28.6532L131.102 30.1937H130.518V41.3418H129.286Z" fill="#0D0F13"/>
<path d="M150.082 41.5521C149.142 41.5521 148.323 41.4062 147.609 41.1062C146.896 40.8062 146.328 40.3846 145.915 39.8333C145.493 39.282 145.258 38.6334 145.201 37.8956V37.7658H146.442L146.458 37.8956C146.523 38.4064 146.709 38.8442 147.026 39.2252C147.342 39.5982 147.772 39.8901 148.299 40.1009C148.834 40.3036 149.45 40.409 150.147 40.409C150.844 40.409 151.444 40.3036 151.955 40.1009C152.466 39.8982 152.863 39.5982 153.147 39.2171C153.431 38.8361 153.577 38.3901 153.577 37.8793C153.577 37.2226 153.35 36.7037 152.904 36.3146C152.458 35.9254 151.72 35.6173 150.698 35.3822L149.247 35.0579C147.966 34.766 147.026 34.3282 146.426 33.7606C145.826 33.185 145.518 32.431 145.518 31.4905C145.518 30.777 145.72 30.1527 146.109 29.6176C146.499 29.0825 147.026 28.6528 147.707 28.3528C148.388 28.0447 149.158 27.8906 150.034 27.8906C150.909 27.8906 151.655 28.0447 152.32 28.3528C152.985 28.6609 153.52 29.0906 153.925 29.6338C154.331 30.1851 154.55 30.8175 154.598 31.5472V31.6769H153.358V31.5553C153.285 31.0364 153.098 30.5905 152.815 30.2175C152.531 29.8446 152.142 29.5527 151.663 29.35C151.185 29.1473 150.634 29.0419 150.009 29.0419C149.385 29.0419 148.809 29.1392 148.331 29.3419C147.845 29.5446 147.472 29.8203 147.204 30.1851C146.936 30.5419 146.807 30.9635 146.807 31.4418V31.458C146.807 32.0742 147.034 32.5688 147.48 32.958C147.926 33.3471 148.631 33.6552 149.596 33.8741L151.047 34.1984C151.955 34.4011 152.685 34.6606 153.244 34.9768C153.804 35.293 154.209 35.6822 154.469 36.1443C154.728 36.6064 154.858 37.1659 154.858 37.8145C154.858 38.5847 154.663 39.2414 154.274 39.8009C153.885 40.3603 153.333 40.79 152.62 41.0981C151.907 41.4062 151.063 41.5603 150.098 41.5603L150.082 41.5521Z" fill="#0D0F13"/>
</svg>
